<?xml version="1.0" encoding="UTF-8"?>
<svg id="Layer_2" data-name="Layer 2" xmlns="http://www.w3.org/2000/svg" viewBox="0 0 372.91 61.08">
  <defs>
    <style>
      .cls-1 {
        fill: #231916;
      }
    </style>
  </defs>
  <g id="Layer_1-2" data-name="Layer 1">
    <path class="cls-1" d="M184.77,53.32c0,4.04-3.28,7.32-7.32,7.32s-7.32-3.28-7.32-7.32,3.28-7.32,7.32-7.32,7.32,3.28,7.32,7.32"/>
    <path class="cls-1" d="M0,51.46l7.68-9.2c5.32,4.39,10.88,7.17,17.63,7.17,5.32,0,8.52-2.11,8.52-5.57v-.17c0-3.29-2.03-4.98-11.89-7.51C10.04,33.15,2.36,29.86,2.36,18.14v-.17C2.36,7.25,10.97,.17,23.03,.17c8.6,0,15.95,2.7,21.93,7.51l-6.75,9.79c-5.23-3.63-10.38-5.82-15.35-5.82s-7.59,2.28-7.59,5.14v.17c0,3.88,2.53,5.15,12.74,7.76,11.98,3.12,18.73,7.42,18.73,17.71v.17c0,11.73-8.94,18.31-21.68,18.31-8.94,0-17.97-3.12-25.06-9.45"/>
    <path class="cls-1" d="M51.88,51.46l7.68-9.2c5.32,4.39,10.88,7.17,17.63,7.17,5.31,0,8.52-2.11,8.52-5.57v-.17c0-3.29-2.03-4.98-11.89-7.51-11.9-3.04-19.57-6.33-19.57-18.05v-.17C54.24,7.25,62.85,.17,74.91,.17c8.61,0,15.95,2.7,21.93,7.51l-6.75,9.79c-5.23-3.63-10.38-5.82-15.35-5.82s-7.59,2.28-7.59,5.14v.17c0,3.88,2.53,5.15,12.74,7.76,11.98,3.12,18.73,7.42,18.73,17.71v.17c0,11.73-8.94,18.31-21.68,18.31-8.94,0-17.97-3.12-25.06-9.45"/>
    <path class="cls-1" d="M103.92,30.71v-.17c0-16.79,13.08-30.54,30.96-30.54,10.63,0,17.04,2.87,23.2,8.1l-8.18,9.87c-4.56-3.8-8.61-5.99-15.44-5.99-9.45,0-16.96,8.35-16.96,18.39v.17c0,10.8,7.42,18.73,17.88,18.73,4.72,0,8.94-1.18,12.23-3.55v-8.43h-13.08v-11.22h25.65v25.65c-6.07,5.14-14.43,9.36-25.22,9.36-18.39,0-31.04-12.91-31.04-30.37"/>
    <path class="cls-1" d="M188.25,30.71v-.17c0-16.79,12.65-30.54,30.79-30.54,11.13,0,17.8,3.71,23.28,9.11l-8.27,9.53c-4.56-4.13-9.2-6.66-15.1-6.66-9.95,0-17.12,8.27-17.12,18.39v.17c0,10.12,7,18.56,17.12,18.56,6.75,0,10.88-2.7,15.52-6.92l8.27,8.35c-6.07,6.49-12.82,10.54-24.21,10.54-17.38,0-30.29-13.41-30.29-30.37"/>
    <path class="cls-1" d="M245.02,30.71v-.17c0-16.79,13.24-30.54,31.46-30.54s31.3,13.58,31.3,30.37v.17c0,16.79-13.25,30.54-31.47,30.54s-31.3-13.58-31.3-30.37m49.18,0v-.17c0-10.12-7.42-18.56-17.88-18.56s-17.72,8.27-17.72,18.39v.17c0,10.12,7.42,18.56,17.88,18.56s17.72-8.27,17.72-18.39"/>
    <polygon class="cls-1" points="313.86 1.01 327.86 1.01 343.38 25.98 358.9 1.01 372.91 1.01 372.91 60.06 360 60.06 360 21.51 343.38 46.73 343.05 46.73 326.59 21.76 326.59 60.06 313.86 60.06 313.86 1.01"/>
  </g>
</svg>