<?xml version="1.0" encoding="UTF-8"?>
<svg id="Layer_2" data-name="Layer 2" xmlns="http://www.w3.org/2000/svg" viewBox="0 0 101.56 101.76">
  <defs>
    <style>
      .cls-1 {
        fill: #ec6b43;
      }

      .cls-2 {
        fill: #fff;
      }

      .cls-3 {
        fill: #e73a69;
      }

      .cls-4 {
        fill: #d0315c;
      }

      .cls-5 {
        fill: #d45e38;
      }

      .cls-6 {
        fill: #cfda41;
      }

      .cls-7 {
        fill: #dccc4e;
      }

      .cls-8 {
        fill: #714f9d;
      }

      .cls-9 {
        fill: #6d4799;
      }

      .cls-10 {
        fill: #54b663;
      }

      .cls-11 {
        fill: #478ccb;
      }

      .cls-12 {
        fill: #377ec2;
      }

      .cls-13 {
        fill: #55c2e9;
      }

      .cls-14 {
        fill: #49469a;
      }

      .cls-15 {
        fill: #44add0;
      }

      .cls-16 {
        fill: #4e4d9e;
      }
    </style>
  </defs>
  <g id="Layer_1-2" data-name="Layer 1">
    <g>
      <path class="cls-9" d="M58.45,101.56h20.28c3.16,0,6.16-.64,8.89-1.8l-29.18-49.64v51.44Z"/>
      <polygon class="cls-16" points="58.45 0 28.99 0 58.45 50.12 58.45 0"/>
      <path class="cls-14" d="M58.9,0h-.45V50.12l29.18,49.64c.17-.08,.35-.16,.52-.24L58.9,0Z"/>
      <polygon class="cls-8" points="28.99 0 28.54 0 58.39 101.56 58.45 101.56 58.45 50.12 28.99 0"/>
      <path class="cls-12" d="M101.56,78.73v-6.91l-12.76-21.7v49.1c7.56-3.72,12.76-11.5,12.76-20.49"/>
      <path class="cls-13" d="M59.35,0l29.46,50.12V2.34c-3.04-1.5-6.46-2.34-10.07-2.34h-19.38Z"/>
      <path class="cls-10" d="M92.35,4.51l9.01,15.32c-.82-6.26-4.18-11.73-9.01-15.32"/>
      <path class="cls-15" d="M88.8,2.34V50.12h0s12.76,21.71,12.76,21.71v-29.94L90.15,3.07c-.44-.26-.89-.5-1.35-.73"/>
      <path class="cls-11" d="M59.35,0h-.45l29.25,99.52c.22-.1,.44-.2,.66-.31V50.12L59.35,0Z"/>
      <polygon class="cls-11" points="59.35 0 88.8 50.12 88.8 50.12 59.35 0"/>
      <path class="cls-10" d="M101.36,19.83l-9.01-15.33c-.7-.52-1.43-1-2.2-1.44l11.41,38.81V22.83c0-1.02-.07-2.01-.2-3"/>
      <polygon class="cls-10" points="92.35 4.51 92.35 4.51 101.36 19.83 92.35 4.51"/>
      <polygon class="cls-5" points="28.09 101.56 58.33 101.56 28.09 50.12 28.09 101.56"/>
      <path class="cls-3" d="M22.83,0C15.17,0,8.4,3.78,4.26,9.56L28.09,50.12V0h-5.27Z"/>
      <polygon class="cls-4" points="28.09 0 28.09 50.12 58.33 101.56 58.39 101.56 28.54 0 28.09 0"/>
      <path class="cls-1" d="M28.09,101.56V50.12L4.26,9.56c-.83,1.16-1.56,2.41-2.17,3.72L28.03,101.56h.06Z"/>
      <path class="cls-6" d="M0,78.73c0,12.6,10.22,22.83,22.83,22.83h5.14L0,53.97v24.76Z"/>
      <path class="cls-7" d="M0,53.97l27.97,47.59h.06L2.09,13.29c-1.34,2.9-2.09,6.13-2.09,9.54v31.14Z"/>
      <path class="cls-2" d="M28.03,101.56l.06,.21-.06-.21Z"/>
      <polygon class="cls-2" points="58.39 101.56 58.45 101.76 58.45 101.56 58.39 101.56"/>
      <polygon class="cls-2" points="28.09 101.56 28.09 101.76 58.45 101.76 58.33 101.56 28.09 101.56"/>
      <polygon class="cls-2" points="58.33 101.56 58.45 101.76 58.39 101.56 58.33 101.56"/>
      <polygon class="cls-2" points="28.03 101.56 28.09 101.76 28.09 101.56 28.03 101.56"/>
      <polygon class="cls-2" points="27.97 101.56 28.09 101.76 28.03 101.56 27.97 101.56"/>
    </g>
    <path class="cls-2" d="M27.19,71.59l7.68-9.2c5.32,4.39,10.88,7.17,17.63,7.17,5.32,0,8.52-2.11,8.52-5.57v-.17c0-3.29-2.03-4.98-11.89-7.51-11.9-3.04-19.57-6.33-19.57-18.05v-.17c0-10.71,8.61-17.8,20.67-17.8,8.6,0,15.94,2.7,21.93,7.51l-6.75,9.79c-5.23-3.63-10.38-5.82-15.35-5.82s-7.59,2.28-7.59,5.14v.17c0,3.88,2.53,5.15,12.74,7.76,11.98,3.12,18.73,7.42,18.73,17.71v.17c0,11.73-8.94,18.31-21.68,18.31-8.94,0-17.97-3.12-25.05-9.45"/>
  </g>
</svg>